<?xml version="1.0" encoding="UTF-8"?>
<!DOCTYPE svg PUBLIC "-//W3C//DTD SVG 1.1//EN" "http://www.w3.org/Graphics/SVG/1.1/DTD/svg11.dtd">
<svg xmlns="http://www.w3.org/2000/svg" version="1.1" width="48px" height="48px" style="shape-rendering:geometricPrecision; text-rendering:geometricPrecision; image-rendering:optimizeQuality; fill-rule:evenodd; clip-rule:evenodd" xmlns:xlink="http://www.w3.org/1999/xlink">
<g><path style="opacity:0.991" fill="#a6bfbe" d="M 18.5,2.5 C 33.5556,1.54208 42.5556,8.54208 45.5,23.5C 41.4561,40.3998 31.1228,46.5664 14.5,42C -0.943171,30.107 -1.2765,17.7737 13.5,5C 15.3146,4.24316 16.9812,3.40982 18.5,2.5 Z"/></g>
<g><path style="opacity:1" fill="#bfd1d1" d="M 23.5,7.5 C 23.8966,6.47498 24.5632,6.30831 25.5,7C 26.2567,8.51221 27.2567,9.84555 28.5,11C 28.6952,12.2353 28.6952,13.7353 28.5,15.5C 26.3626,16.7381 25.0293,18.5714 24.5,21C 14.9561,21.2131 12.2894,17.2131 16.5,9C 19.4822,8.09353 21.8155,7.59353 23.5,7.5 Z"/></g>
<g><path style="opacity:1" fill="#d6e2e1" d="M 18.5,10.5 C 20.6365,11.7874 22.9699,12.6207 25.5,13C 24.552,13.4828 23.552,13.6495 22.5,13.5C 24.1345,17.2322 22.8011,18.7322 18.5,18C 16.9644,16.4006 16.4644,14.5672 17,12.5C 17.3333,13.1667 17.6667,13.8333 18,14.5C 18.49,13.2068 18.6567,11.8734 18.5,10.5 Z"/></g>
</svg>
