<?xml version="1.0" encoding="UTF-8" standalone="no"?>
<svg
   xmlns:dc="http://purl.org/dc/elements/1.1/"
   xmlns:cc="http://creativecommons.org/ns#"
   xmlns:rdf="http://www.w3.org/1999/02/22-rdf-syntax-ns#"
   xmlns:svg="http://www.w3.org/2000/svg"
   xmlns="http://www.w3.org/2000/svg"
   xmlns:xlink="http://www.w3.org/1999/xlink"
   xmlns:sodipodi="http://sodipodi.sourceforge.net/DTD/sodipodi-0.dtd"
   xmlns:inkscape="http://www.inkscape.org/namespaces/inkscape"
   width="120"
   height="48"
   viewBox="0 0 120 48"
   version="1.1"
   id="svg77"
   sodipodi:docname="logo.svg">
  <metadata
     id="metadata81">
    <rdf:RDF>
      <cc:Work
         rdf:about="">
        <dc:format>image/svg+xml</dc:format>
        <dc:type
           rdf:resource="http://purl.org/dc/dcmitype/StillImage" />
      </cc:Work>
    </rdf:RDF>
  </metadata>
  <sodipodi:namedview
     pagecolor="#ffffff"
     bordercolor="#666666"
     borderopacity="1"
     objecttolerance="10"
     gridtolerance="10"
     guidetolerance="10"
     inkscape:pageopacity="0"
     inkscape:pageshadow="2"
     inkscape:window-width="640"
     inkscape:window-height="480"
     id="namedview79"
     showgrid="false"
     inkscape:lockguides="false"
     inkscape:snap-text-baseline="false" />
  <defs
     id="defs60">
    <path
       id="a"
       d="M6 8c-1.1 0-2 .9-2 2s.9 2 2 2 2-.9 2-2-.9-2-2-2zM2 4C.9 4 0 4.9 0 6s.9 2 2 2 2-.9 2-2-.9-2-2-2zm0 8c-1.1 0-2 .9-2 2s.9 2 2 2 2-.9 2-2-.9-2-2-2zm12-8c1.1 0 2-.9 2-2s-.9-2-2-2-2 .9-2 2 .9 2 2 2zm-4 8c-1.1 0-2 .9-2 2s.9 2 2 2 2-.9 2-2-.9-2-2-2zm4-4c-1.1 0-2 .9-2 2s.9 2 2 2 2-.9 2-2-.9-2-2-2zm-4-4c-1.1 0-2 .9-2 2s.9 2 2 2 2-.9 2-2-.9-2-2-2zM6 0C4.9 0 4 .9 4 2s.9 2 2 2 2-.9 2-2-.9-2-2-2z" />
    <path
       id="c"
       d="M0 0h50v50H0z" />
    <meshgradient
       inkscape:collect="always"
       id="meshgradient93" />
  </defs>
  <g
     fill="none"
     fill-rule="evenodd"
     id="g75"
     style="display:inline">
    <path
       fill="#00d69f"
       d="M 0,0 H 48 V 48 H 0 Z"
       id="path62" />
    <g
       transform="translate(16,16)"
       id="g71">
      <mask
         id="b"
         fill="#ffffff">
        <use
           xlink:href="#a"
           id="use64"
           x="0"
           y="0"
           width="100%"
           height="100%" />
      </mask>
      <g
         mask="url(#b)"
         id="g69">
        <use
           fill="#ffffff"
           transform="translate(-17,-17)"
           xlink:href="#c"
           id="use67"
           x="0"
           y="0"
           width="100%"
           height="100%" />
      </g>
    </g>
    <path
       fill="#ffffff"
       fill-rule="nonzero"
       d="m 64.075,17.2 c 1.267,0 2.362,0.283 3.287,0.85 a 5.969,5.969 0 0 1 2.163,2.275 l -2.3,1.775 c -0.85,-1.267 -1.9,-1.9 -3.15,-1.9 -0.583,0 -1.07,0.137 -1.463,0.413 -0.391,0.274 -0.587,0.67 -0.587,1.187 0,0.433 0.146,0.78 0.438,1.037 0.291,0.259 0.787,0.546 1.487,0.863 l 1.875,0.825 c 1.383,0.617 2.408,1.296 3.075,2.038 0.667,0.741 1,1.67 1,2.787 0,1.5 -0.542,2.7 -1.625,3.6 -1.083,0.9 -2.467,1.35 -4.15,1.35 -1.4,0 -2.654,-0.33 -3.763,-0.987 A 7.15,7.15 0 0 1 57.75,30.65 l 2.325,-1.75 c 1.15,1.6 2.5,2.4 4.05,2.4 0.733,0 1.308,-0.163 1.725,-0.488 0.417,-0.325 0.625,-0.77 0.625,-1.337 0,-0.333 -0.096,-0.63 -0.287,-0.888 A 2.047,2.047 0 0 0 65.538,28 c -0.242,-0.133 -0.63,-0.325 -1.163,-0.575 l -1.775,-0.8 c -1.283,-0.583 -2.27,-1.25 -2.962,-2 -0.692,-0.75 -1.038,-1.667 -1.038,-2.75 0,-1.4 0.517,-2.53 1.55,-3.387 1.033,-0.859 2.342,-1.288 3.925,-1.288 z m 15.65,4.15 c 1.75,0 3.188,0.608 4.313,1.825 1.124,1.217 1.687,2.758 1.687,4.625 0,1.867 -0.563,3.417 -1.688,4.65 -1.125,1.233 -2.562,1.85 -4.312,1.85 -1.55,0 -2.783,-0.5 -3.7,-1.5 v 5.7 H 72.65 V 21.625 h 3.1 v 1.55 c 0.883,-1.217 2.208,-1.825 3.975,-1.825 z M 79.1,31.225 c 0.9,0 1.658,-0.313 2.275,-0.938 0.617,-0.624 0.925,-1.445 0.925,-2.462 0,-1.033 -0.304,-1.863 -0.912,-2.488 C 80.779,24.712 80.017,24.4 79.1,24.4 c -0.85,0 -1.583,0.288 -2.2,0.863 -0.617,0.574 -0.925,1.42 -0.925,2.537 0,1.1 0.304,1.946 0.913,2.537 0.608,0.592 1.345,0.888 2.212,0.888 z m 10.95,-16.2 c 0.6,0 1.112,0.2 1.538,0.6 0.425,0.4 0.637,0.9 0.637,1.5 0,0.583 -0.212,1.075 -0.637,1.475 -0.425,0.4 -0.938,0.6 -1.538,0.6 -0.6,0 -1.108,-0.2 -1.525,-0.6 A 1.965,1.965 0 0 1 87.9,17.125 c 0,-0.6 0.208,-1.1 0.625,-1.5 0.417,-0.4 0.925,-0.6 1.525,-0.6 z m 1.7,6.6 V 34 H 88.375 V 21.625 Z m 9.275,-0.275 c 1.217,0 2.283,0.27 3.2,0.813 A 5.906,5.906 0 0 1 106.4,24.4 l -2.35,1.825 c -0.8,-1.2 -1.792,-1.8 -2.975,-1.8 -0.95,0 -1.73,0.32 -2.338,0.962 -0.608,0.642 -0.912,1.446 -0.912,2.413 0,0.983 0.304,1.796 0.912,2.438 0.609,0.641 1.388,0.962 2.338,0.962 1.15,0 2.142,-0.592 2.975,-1.775 l 2.35,1.8 a 5.97,5.97 0 0 1 -2.188,2.25 c -0.925,0.55 -1.987,0.825 -3.187,0.825 -1.85,0 -3.417,-0.625 -4.7,-1.875 C 95.042,31.175 94.4,29.633 94.4,27.8 c 0,-1.817 0.642,-3.346 1.925,-4.588 1.283,-1.241 2.85,-1.862 4.7,-1.862 z m 12.95,0 c 1.617,0 2.904,0.454 3.863,1.362 0.958,0.909 1.437,2.221 1.437,3.938 V 34 h -3.1 v -1.2 c -0.95,1 -2.208,1.5 -3.775,1.5 -1.317,0 -2.358,-0.346 -3.125,-1.037 -0.767,-0.692 -1.15,-1.58 -1.15,-2.663 0,-1.117 0.42,-1.996 1.263,-2.638 C 110.229,27.321 111.367,27 112.8,27 h 3.1 v -0.55 c 0,-0.683 -0.196,-1.217 -0.588,-1.6 -0.391,-0.383 -0.962,-0.575 -1.712,-0.575 -1.1,0 -2.192,0.567 -3.275,1.7 l -1.75,-2.075 c 1.433,-1.7 3.233,-2.55 5.4,-2.55 z M 113.3,31.825 c 0.733,0 1.35,-0.23 1.85,-0.688 0.5,-0.458 0.75,-1.045 0.75,-1.762 v -0.15 h -2.65 c -1.15,0 -1.725,0.417 -1.725,1.25 0,0.417 0.162,0.746 0.487,0.987 0.326,0.242 0.755,0.363 1.288,0.363 z"
       id="path73" />
    <text
       xml:space="preserve"
       style="font-style:normal;font-weight:normal;font-size:40px;line-height:1.25;font-family:sans-serif;fill:url(#meshgradient93);fill-opacity:1;stroke:none"
       x="60.500378"
       y="23.108416"
       id="text91"><tspan
         sodipodi:role="line"
         id="tspan89"
         x="60.500378"
         y="23.108416"
         style="fill-opacity:1;fill:url(#meshgradient93)" /></text>
  </g>
</svg>
